<svg xmlns="http://www.w3.org/2000/svg" xmlns:xlink="http://www.w3.org/1999/xlink" viewBox="0 0 5000 3000"><defs><style>.a{isolation:isolate;}.b{fill:url(#a);}.c,.d,.e,.g{mix-blend-mode:color-dodge;}.c{opacity:0.12;fill:url(#b);}.d,.f{opacity:0.07;}.d{fill:url(#c);}.e{opacity:0.15;fill:url(#d);}.f{mix-blend-mode:screen;fill:url(#e);}.g{opacity:0.25;fill:url(#f);}.h,.i,.j,.l{fill:none;stroke:#fff;}.h{stroke-width:4px;}.i,.l{stroke-width:6px;}.i{opacity:0.67;}.j{stroke-width:8px;}.k{fill:#fff;}.m{opacity:0.71;}.n{opacity:0.5;}</style><linearGradient id="a" x1="-71.55" y1="1365.23" x2="5071.55" y2="1634.77" gradientUnits="userSpaceOnUse"><stop offset="0" stop-color="#ec008c"/><stop offset="0.04" stop-color="#e0078f"/><stop offset="0.23" stop-color="#a5289c"/><stop offset="0.42" stop-color="#7444a8"/><stop offset="0.59" stop-color="#4e59b1"/><stop offset="0.75" stop-color="#3268b7"/><stop offset="0.89" stop-color="#2272bb"/><stop offset="1" stop-color="#1c75bc"/></linearGradient><linearGradient id="b" x1="724.55" y1="3804.7" x2="3903.74" y2="942.15" gradientUnits="userSpaceOnUse"><stop offset="0" stop-color="#26a9e0"/><stop offset="0.16" stop-color="#269fd9"/><stop offset="0.42" stop-color="#2886c7"/><stop offset="0.76" stop-color="#295ca9"/><stop offset="1" stop-color="#2b3990"/></linearGradient><linearGradient id="c" x1="2934.9" y1="1181.3" x2="4096.21" y2="3460.5" gradientUnits="userSpaceOnUse"><stop offset="0" stop-color="#26a9e0"/><stop offset="0.14" stop-color="#269fd7"/><stop offset="0.37" stop-color="#2686bf"/><stop offset="0.66" stop-color="#265b98"/><stop offset="1" stop-color="#262262"/></linearGradient><linearGradient id="d" x1="3175.98" y1="1285.09" x2="4245.62" y2="3384.38" xlink:href="#c"/><linearGradient id="e" x1="639.43" y1="1539.16" x2="3479.96" y2="-1018.47" xlink:href="#b"/><linearGradient id="f" x1="832.4" y1="-424.13" x2="1429.03" y2="746.83" xlink:href="#c"/></defs><g class="a"><rect class="b" width="5000" height="3000"/><path class="c" d="M5000,2180.46s-635.91-1018.25-2119.63-872.69C1995.11,1394.61,1622.49,2024,1211.7,2036.4,661,2053,324.92,1400.15,0,1412.15V3000H5000Z"/><path class="d" d="M1367.82,3000S1739.43,1636.22,2821,1636.22c702.71,0,1401.48-106.87,1367.95-764.19C4164.42,391,4945.19,139.73,5000,343.81V3000Z"/><path class="e" d="M1860,3000s336.13-1287.73,1404.56-1119.66C3964.6,1990.46,4451.31,1433.85,4381,1016c-80-475,564.22-648.26,619-444.17V3000Z"/><path class="f" d="M0,829s832.54,582.45,1367.82,478.77C1981,1189,1997,437,2437,421s746.91,424,1232,360c252.06-33.26,704-402,728-781H0Z"/><path class="g" d="M0,1184.15S743.57,1304.2,1055.7,836,1728,115.72,1992.07,175.75,2640.33,160.39,2700.36,0H0Z"/><line class="h" x1="4018.51" y1="226.01" x2="3183.91" y2="1060.6"/><line class="i" x1="990.09" y1="1606.09" x2="261.59" y2="2334.59"/><line class="j" x1="4358.31" y1="1893.86" x2="3852.5" y2="2399.67"/><circle class="k" cx="478.65" cy="272.43" r="57.65"/><circle class="k" cx="3493" cy="2782.35" r="29.86"/><polygon class="h" points="1324.52 772.57 1367.82 697.57 1411.12 772.57 1324.52 772.57"/><polygon class="l" points="4754.2 1387.5 4710.9 1462.5 4667.6 1387.5 4754.2 1387.5"/><circle class="h" cx="1923.96" cy="2389.53" r="64"/><g class="m"><polygon class="k" points="2154.23 302.87 2159.89 308.53 2468.29 0.13 2456.98 0.13 2154.23 302.87"/></g><g class="n"><polygon class="k" points="2454.23 2570.49 2448.58 2564.83 2013.54 2999.88 2024.85 2999.88 2454.23 2570.49"/></g></g></svg>